# xmcd CD database file generated by Grip 3.2.0
# 
# Track frame offsets:
#       150
#       12070
#       25165
#       38555
#       51155
#       63215
#       74932
#       85825
#       99010
#       113867
#       126167
#       138732
#       149155
#       163310
#       176925
# 
# Disc length: 2532 seconds
# 
# Revision: 3
# Processed by: cddbd v1.5.2PL0 Copyright (c) Steve Scherf et al.
# Submitted via: Grip 3.2.0
# 
DISCID=db09e20f
DTITLE=Sonny Boy Williamson - Goin' in Your Direction
DYEAR=1954
DGENRE=Blues
TTITLE0=Goin' in Your Direction
TTITLE1=From the Bottom
TTITLE2=No Nights by Myself
TTITLE3=Boppin' with Sonny
TTITLE4=Empty Bedroom
TTITLE5=Red Hot Kisses
TTITLE6=Gettin' Out of Town
TTITLE7=Cat Hop
TTITLE8=She Brought Life Back to the Dead
TTITLE9=I'm Not Beggin' Nobody
TTITLE10=She's Crazy
TTITLE11=Sonny's Rhythm #2
TTITLE12=Make a Little Love with Me
TTITLE13=Gonna Find My Baby
TTITLE14=Catfish Blues
EXTD=
EXTT0=
EXTT1=
EXTT2=
EXTT3=
EXTT4=
EXTT5=
EXTT6=
EXTT7=
EXTT8=
EXTT9=
EXTT10=
EXTT11=
EXTT12=
EXTT13=
EXTT14=
PLAYORDER=
